<svg width="93" height="16" viewBox="0 0 93 16" fill="none" xmlns="http://www.w3.org/2000/svg">
<path d="M6.15371 16H0.239647V-4.76837e-07H6.1459C7.77611 -4.76837e-07 9.17975 0.320312 10.3568 0.960938C11.5391 1.59635 12.4506 2.51302 13.0912 3.71094C13.7318 4.90365 14.0521 6.33073 14.0521 7.99219C14.0521 9.65885 13.7318 11.0911 13.0912 12.2891C12.4558 13.487 11.5469 14.4062 10.3646 15.0469C9.18236 15.6823 7.77871 16 6.15371 16ZM4.10683 12.7031H6.00527C6.90111 12.7031 7.65892 12.5521 8.27871 12.25C8.90371 11.9427 9.37506 11.4453 9.69277 10.7578C10.0157 10.0651 10.1771 9.14323 10.1771 7.99219C10.1771 6.84115 10.0157 5.92448 9.69277 5.24219C9.36986 4.55469 8.89329 4.0599 8.26308 3.75781C7.63808 3.45052 6.86725 3.29687 5.95058 3.29687H4.10683V12.7031ZM21.0256 16H16.8693L22.2678 -4.76837e-07H27.4162L32.8146 16H28.6584L24.9006 4.03125H24.7756L21.0256 16ZM20.4709 9.70312H29.1584V12.6406H20.4709V9.70312ZM50.3545 -4.76837e-07V16H47.0732L40.7061 6.76562H40.6045V16H36.7373V-4.76837e-07H40.0654L46.3623 9.21875H46.4951V-4.76837e-07H50.3545ZM54.9861 16V-4.76837e-07H66.1424V3.14062H58.8533V6.42187H65.5721V9.57031H58.8533V12.8594H66.1424V16H54.9861ZM74.6002 16L69.9439 -4.76837e-07H74.2174L76.6314 10.4844H76.7643L79.5221 -4.76837e-07H83.0064L85.7643 10.5078H85.8971L88.3189 -4.76837e-07H92.5846L87.9361 16H84.2096L81.3268 6.29687H81.2018L78.3189 16H74.6002Z" fill="#445439"/>
</svg>
